<svg version="1" xmlns="http://www.w3.org/2000/svg" width="933.333" height="933.333" viewBox="0 0 700.000000 700.000000"><path d="M0 350v350h161.8l-.2-174.9c0-96.2.2-174.7.7-174.4.4.2.7 1.2.7 2.2 0 .9.4 2.1.9 2.6.4.6 2 4.1 3.5 8 1.5 3.8 3.4 8.3 4.1 10 .7 1.6 6.6 15.8 13 31.5 9.9 24 14.8 35.9 20.4 49.5.5 1.1 1.7 4 2.7 6.5.9 2.5 2.5 6.3 3.5 8.5.9 2.2 4.5 10.7 7.8 19 3.4 8.2 6.6 15.9 7 17 .5 1.1 1.8 4 2.9 6.5 1 2.5 3 7.3 4.3 10.7 1.3 3.4 2.8 5.9 3.3 5.6.5-.3.6-.2.3.4-.5.8 17.7 47.1 27.7 70.3 1.3 3 9 21.7 17.1 41.5 8.1 19.8 16.8 41.2 19.4 47.5l4.8 11.5 44.1.3 44.1.2 1.5-3.2c.8-1.8 2.5-5.8 3.6-8.8 1.2-3 2.8-6.9 3.5-8.5.7-1.7 11.1-26.8 23.1-56 11.9-29.2 25.4-62.2 30-73.4 4.7-11.2 8.2-20.6 7.9-20.9-.3-.3.1-1.2.9-2.1.8-.9 6.1-13.1 11.9-27.1 5.8-14 11.1-26.9 11.7-28.5.7-1.7 1.8-4.4 2.5-6 22.6-54.5 31.6-76.3 39.8-96.5 3.8-9.6 7.3-17.8 7.6-18.2.3-.4.6 78 .5 174.3l-.1 174.9H700V0H541.4l-2.2 4.7c-1.2 2.7-3.3 7.5-4.7 10.8-1.5 3.3-3.5 7.8-4.5 10s-14.5 33-30 68.5-29 66.3-30 68.5c-1 2.2-26.1 59.8-55.9 128-29.8 68.2-54.8 125.3-55.6 127-2.6 5.6-6.7 15-7.5 17.5l-.9 2.5-.6-2.2c-.4-1.3-1.2-2-1.8-1.6-.6.3-.7.1-.3-.5.4-.6-.5-3.7-2-6.9-1.4-3.2-3.2-7.2-3.9-8.8-6-13.9-30.1-68.9-31.6-72.2-1-2.3-1.9-4.4-1.9-4.7 0-.2-1.3-3.3-2.9-6.8-2.7-5.9-45.4-103.2-52.6-119.8-4.9-11.3-86.8-198.4-90.5-206.8L158.7 0H0v350zm350.1 222.7c1.3 1.6 1.2 1.7-.3.4-1.7-1.3-2.2-2.1-1.4-2.1.2 0 1 .8 1.7 1.7z"/></svg>